<?xml version="1.0" standalone="no"?>
<!DOCTYPE svg PUBLIC "-//W3C//DTD SVG 20010904//EN"
 "http://www.w3.org/TR/2001/REC-SVG-20010904/DTD/svg10.dtd">
<svg version="1.0" xmlns="http://www.w3.org/2000/svg"
 width="256.000000pt" height="256.000000pt" viewBox="0 0 256.000000 256.000000"
 preserveAspectRatio="xMidYMid meet">

<g transform="translate(0.000000,256.000000) scale(0.100000,-0.100000)"
fill="#000000" stroke="none">
<path d="M519 2127 c-68 -45 -69 -50 -69 -456 l0 -363 53 6 c52 6 174 16 447
36 282 21 294 28 370 220 28 68 50 129 50 135 0 6 -91 101 -202 212 -135 133
-216 206 -242 217 -30 12 -75 16 -206 16 -157 0 -169 -1 -201 -23z"/>
<path d="M1487 1828 c-32 -178 -57 -336 -57 -353 0 -40 34 -93 66 -105 14 -6
67 -15 117 -20 89 -10 473 -40 510 -40 17 0 18 19 15 368 -3 407 -4 412 -71
452 -29 18 -52 20 -278 20 l-245 0 -57 -322z"/>
<path d="M450 944 c0 -332 2 -362 20 -401 11 -25 33 -51 52 -63 31 -19 47 -20
278 -18 l245 3 58 328 c39 216 57 341 52 363 -8 48 -43 84 -90 94 -41 9 -313
34 -507 46 l-108 6 0 -358z"/>
<path d="M2060 1295 c-8 -2 -89 -9 -180 -15 -467 -34 -513 -42 -554 -105 -19
-29 -106 -249 -106 -268 0 -7 89 -101 198 -209 137 -137 211 -203 242 -217 39
-18 66 -21 205 -21 181 0 213 9 250 71 19 32 20 55 23 402 l3 367 -33 -1 c-18
-1 -40 -3 -48 -4z"/>
</g>
</svg>
